<?xml version="1.0" encoding="UTF-8"?>
<!DOCTYPE svg PUBLIC "-//W3C//DTD SVG 1.1//EN" "http://www.w3.org/Graphics/SVG/1.1/DTD/svg11.dtd">
<svg xmlns="http://www.w3.org/2000/svg" version="1.1" width="260px" height="260px" style="shape-rendering:geometricPrecision; text-rendering:geometricPrecision; image-rendering:optimizeQuality; fill-rule:evenodd; clip-rule:evenodd" xmlns:xlink="http://www.w3.org/1999/xlink">
<g><path style="opacity:1" fill="#fefefe" d="M -0.5,-0.5 C 6.16667,-0.5 12.8333,-0.5 19.5,-0.5C 19.5,6.16667 19.5,12.8333 19.5,19.5C 12.8333,19.5 6.16667,19.5 -0.5,19.5C -0.5,12.8333 -0.5,6.16667 -0.5,-0.5 Z"/></g>
<g><path style="opacity:1" fill="#eeeeee" d="M 19.5,-0.5 C 26.1667,-0.5 32.8333,-0.5 39.5,-0.5C 39.5,6.16667 39.5,12.8333 39.5,19.5C 32.8333,19.5 26.1667,19.5 19.5,19.5C 19.5,12.8333 19.5,6.16667 19.5,-0.5 Z"/></g>
<g><path style="opacity:1" fill="#fefefe" d="M 39.5,-0.5 C 46.1667,-0.5 52.8333,-0.5 59.5,-0.5C 59.5,6.16667 59.5,12.8333 59.5,19.5C 52.8333,19.5 46.1667,19.5 39.5,19.5C 39.5,12.8333 39.5,6.16667 39.5,-0.5 Z"/></g>
<g><path style="opacity:1" fill="#f2f2f2" d="M 59.5,-0.5 C 106.167,-0.5 152.833,-0.5 199.5,-0.5C 199.5,6.16667 199.5,12.8333 199.5,19.5C 206.167,19.5 212.833,19.5 219.5,19.5C 219.5,26.1667 219.5,32.8333 219.5,39.5C 226.167,39.5 232.833,39.5 239.5,39.5C 239.5,46.1667 239.5,52.8333 239.5,59.5C 246.167,59.5 252.833,59.5 259.5,59.5C 259.5,106.167 259.5,152.833 259.5,199.5C 252.833,199.5 246.167,199.5 239.5,199.5C 239.5,206.167 239.5,212.833 239.5,219.5C 232.833,219.5 226.167,219.5 219.5,219.5C 219.5,226.167 219.5,232.833 219.5,239.5C 226.167,239.5 232.833,239.5 239.5,239.5C 246.167,239.5 252.833,239.5 259.5,239.5C 259.5,246.167 259.5,252.833 259.5,259.5C 192.833,259.5 126.167,259.5 59.5,259.5C 59.5,252.833 59.5,246.167 59.5,239.5C 58.9106,235.029 59.5772,231.029 61.5,227.5C 75.8803,236.851 91.547,243.185 108.5,246.5C 114.267,247.953 120.267,248.62 126.5,248.5C 130.349,248.499 134.016,248.165 137.5,247.5C 140.833,247.5 144.167,247.5 147.5,247.5C 153.683,247.87 159.349,246.536 164.5,243.5C 201.573,231.091 227.24,206.757 241.5,170.5C 243.943,165.5 245.61,160.166 246.5,154.5C 246.907,148.839 247.24,143.172 247.5,137.5C 248.165,134.183 248.499,130.683 248.5,127C 248.577,120.608 247.911,114.441 246.5,108.5C 237.35,63.5266 211.35,32.8599 168.5,16.5C 166.485,15.0762 164.152,14.4095 161.5,14.5C 148.992,11.8491 136.326,10.5158 123.5,10.5C 118.217,10.0956 113.217,10.7623 108.5,12.5C 68.4873,20.9914 39.3207,43.6581 21,80.5C 19.1517,86.1882 17.3184,91.8548 15.5,97.5C 13.9605,99.8383 13.2938,102.505 13.5,105.5C 11.9591,110.365 11.2924,115.365 11.5,120.5C 11.135,129.418 10.135,138.251 8.5,147C 9.66667,148.167 10.8333,149.333 12,150.5C 12.1558,153.191 12.9891,155.524 14.5,157.5C 14.5,157.833 14.5,158.167 14.5,158.5C 14.7234,162.162 15.7234,165.495 17.5,168.5C 18.5375,169.93 19.2041,171.597 19.5,173.5C 19.7394,175.467 19.4061,177.301 18.5,179C 12.1754,179.5 5.84209,179.666 -0.5,179.5C -0.5,139.5 -0.5,99.5 -0.5,59.5C 6.16667,59.5 12.8333,59.5 19.5,59.5C 19.5,52.8333 19.5,46.1667 19.5,39.5C 26.1667,39.5 32.8333,39.5 39.5,39.5C 39.5,32.8333 39.5,26.1667 39.5,19.5C 46.1667,19.5 52.8333,19.5 59.5,19.5C 59.5,12.8333 59.5,6.16667 59.5,-0.5 Z"/></g>
<g><path style="opacity:1" fill="#fefefe" d="M 199.5,-0.5 C 206.167,-0.5 212.833,-0.5 219.5,-0.5C 219.5,6.16667 219.5,12.8333 219.5,19.5C 212.833,19.5 206.167,19.5 199.5,19.5C 199.5,12.8333 199.5,6.16667 199.5,-0.5 Z"/></g>
<g><path style="opacity:1" fill="#eeeeee" d="M 219.5,-0.5 C 226.167,-0.5 232.833,-0.5 239.5,-0.5C 239.5,6.16667 239.5,12.8333 239.5,19.5C 232.833,19.5 226.167,19.5 219.5,19.5C 219.5,12.8333 219.5,6.16667 219.5,-0.5 Z"/></g>
<g><path style="opacity:1" fill="#fefefe" d="M 239.5,-0.5 C 246.167,-0.5 252.833,-0.5 259.5,-0.5C 259.5,6.16667 259.5,12.8333 259.5,19.5C 252.833,19.5 246.167,19.5 239.5,19.5C 239.5,12.8333 239.5,6.16667 239.5,-0.5 Z"/></g>
<g><path style="opacity:1" fill="#505050" d="M 123.5,10.5 C 118.68,11.4865 113.68,12.1532 108.5,12.5C 113.217,10.7623 118.217,10.0956 123.5,10.5 Z"/></g>
<g><path style="opacity:1" fill="#060505" d="M 123.5,10.5 C 136.326,10.5158 148.992,11.8491 161.5,14.5C 163.515,15.9238 165.848,16.5905 168.5,16.5C 211.35,32.8599 237.35,63.5266 246.5,108.5C 247.199,118.151 247.532,127.817 247.5,137.5C 247.24,143.172 246.907,148.839 246.5,154.5C 244.057,159.5 242.39,164.834 241.5,170.5C 227.24,206.757 201.573,231.091 164.5,243.5C 158.649,244.523 152.982,245.857 147.5,247.5C 144.167,247.5 140.833,247.5 137.5,247.5C 127.815,247.578 118.148,247.245 108.5,246.5C 91.547,243.185 75.8803,236.851 61.5,227.5C 42.597,213.27 28.597,195.27 19.5,173.5C 19.2041,171.597 18.5375,169.93 17.5,168.5C 17.2766,164.838 16.2766,161.505 14.5,158.5C 14.5,158.167 14.5,157.833 14.5,157.5C 12.2532,145.277 11.2532,132.943 11.5,120.5C 11.2924,115.365 11.9591,110.365 13.5,105.5C 14.7682,103.095 15.4349,100.428 15.5,97.5C 17.3184,91.8548 19.1517,86.1882 21,80.5C 39.3207,43.6581 68.4873,20.9914 108.5,12.5C 113.68,12.1532 118.68,11.4865 123.5,10.5 Z"/></g>
<g><path style="opacity:1" fill="#9c9c9c" d="M 161.5,14.5 C 164.152,14.4095 166.485,15.0762 168.5,16.5C 165.848,16.5905 163.515,15.9238 161.5,14.5 Z"/></g>
<g><path style="opacity:1" fill="#eeeeee" d="M -0.5,19.5 C 6.16667,19.5 12.8333,19.5 19.5,19.5C 19.5,26.1667 19.5,32.8333 19.5,39.5C 12.8333,39.5 6.16667,39.5 -0.5,39.5C -0.5,32.8333 -0.5,26.1667 -0.5,19.5 Z"/></g>
<g><path style="opacity:1" fill="#fefefe" d="M 19.5,19.5 C 26.1667,19.5 32.8333,19.5 39.5,19.5C 39.5,26.1667 39.5,32.8333 39.5,39.5C 32.8333,39.5 26.1667,39.5 19.5,39.5C 19.5,32.8333 19.5,26.1667 19.5,19.5 Z"/></g>
<g><path style="opacity:1" fill="#fefefe" d="M 219.5,19.5 C 226.167,19.5 232.833,19.5 239.5,19.5C 239.5,26.1667 239.5,32.8333 239.5,39.5C 232.833,39.5 226.167,39.5 219.5,39.5C 219.5,32.8333 219.5,26.1667 219.5,19.5 Z"/></g>
<g><path style="opacity:1" fill="#eeeeee" d="M 239.5,19.5 C 246.167,19.5 252.833,19.5 259.5,19.5C 259.5,26.1667 259.5,32.8333 259.5,39.5C 252.833,39.5 246.167,39.5 239.5,39.5C 239.5,32.8333 239.5,26.1667 239.5,19.5 Z"/></g>
<g><path style="opacity:1" fill="#a12320" d="M 138.5,26.5 C 128.107,26.3858 117.773,27.0525 107.5,28.5C 117.71,25.5944 128.044,24.9278 138.5,26.5 Z"/></g>
<g><path style="opacity:1" fill="#f91a18" d="M 138.5,26.5 C 144.338,26.5889 150.005,27.5889 155.5,29.5C 155.5,30.5 155.5,31.5 155.5,32.5C 168.158,38.3035 178.658,46.9702 187,58.5C 192.738,67.9769 197.404,77.9769 201,88.5C 203.573,98.675 205.073,109.008 205.5,119.5C 214.434,120.092 223.101,119.425 231.5,117.5C 231.5,118.5 231.5,119.5 231.5,120.5C 211.833,120.5 192.167,120.5 172.5,120.5C 164.64,94.5385 146.974,83.0385 119.5,86C 103.071,90.9317 92.0707,101.432 86.5,117.5C 67.0672,119.469 47.4005,120.136 27.5,119.5C 27.7244,115.821 28.0578,112.154 28.5,108.5C 38.7742,65.935 65.1075,39.2684 107.5,28.5C 117.773,27.0525 128.107,26.3858 138.5,26.5 Z"/></g>
<g><path style="opacity:1" fill="#fefefe" d="M -0.5,39.5 C 6.16667,39.5 12.8333,39.5 19.5,39.5C 19.5,46.1667 19.5,52.8333 19.5,59.5C 12.8333,59.5 6.16667,59.5 -0.5,59.5C -0.5,52.8333 -0.5,46.1667 -0.5,39.5 Z"/></g>
<g><path style="opacity:1" fill="#fefefe" d="M 239.5,39.5 C 246.167,39.5 252.833,39.5 259.5,39.5C 259.5,46.1667 259.5,52.8333 259.5,59.5C 252.833,59.5 246.167,59.5 239.5,59.5C 239.5,52.8333 239.5,46.1667 239.5,39.5 Z"/></g>
<g><path style="opacity:1" fill="#db1715" d="M 155.5,29.5 C 198.471,42.1337 223.804,70.467 231.5,114.5C 231.5,115.5 231.5,116.5 231.5,117.5C 223.101,119.425 214.434,120.092 205.5,119.5C 205.073,109.008 203.573,98.675 201,88.5C 197.404,77.9769 192.738,67.9769 187,58.5C 178.658,46.9702 168.158,38.3035 155.5,32.5C 155.5,31.5 155.5,30.5 155.5,29.5 Z"/></g>
<g><path style="opacity:1" fill="#606060" d="M 15.5,97.5 C 15.4349,100.428 14.7682,103.095 13.5,105.5C 13.2938,102.505 13.9605,99.8383 15.5,97.5 Z"/></g>
<g><path style="opacity:1" fill="#f6f6f6" d="M 121.5,99.5 C 137.917,97.4594 149.75,103.793 157,118.5C 161.358,136.438 155.192,149.271 138.5,157C 118.971,160.985 106.138,153.485 100,134.5C 98.5343,117.416 105.701,105.75 121.5,99.5 Z"/></g>
<g><path style="opacity:1" fill="#78181a" d="M 28.5,108.5 C 28.0578,112.154 27.7244,115.821 27.5,119.5C 27.5,119.833 27.5,120.167 27.5,120.5C 26.1773,116.402 26.5106,112.402 28.5,108.5 Z"/></g>
<g><path style="opacity:1" fill="#09040a" d="M 126.5,113.5 C 134.879,112.773 141.046,116.106 145,123.5C 146.936,133.129 143.436,139.962 134.5,144C 122.995,145.499 116.328,140.499 114.5,129C 115.411,121.275 119.411,116.108 126.5,113.5 Z"/></g>
<g><path style="opacity:1" fill="#da2c27" d="M 86.5,117.5 C 86.5,118.5 86.5,119.5 86.5,120.5C 66.8333,120.5 47.1667,120.5 27.5,120.5C 27.5,120.167 27.5,119.833 27.5,119.5C 47.4005,120.136 67.0672,119.469 86.5,117.5 Z"/></g>
<g><path style="opacity:1" fill="#991e1e" d="M 231.5,114.5 C 232.468,116.607 232.802,118.941 232.5,121.5C 212.326,121.83 192.326,121.497 172.5,120.5C 192.167,120.5 211.833,120.5 231.5,120.5C 231.5,119.5 231.5,118.5 231.5,117.5C 231.5,116.5 231.5,115.5 231.5,114.5 Z"/></g>
<g><path style="opacity:1" fill="#363636" d="M 246.5,108.5 C 247.911,114.441 248.577,120.608 248.5,127C 248.499,130.683 248.165,134.183 247.5,137.5C 247.532,127.817 247.199,118.151 246.5,108.5 Z"/></g>
<g><path style="opacity:1" fill="#b3b3b3" d="M 26.5,137.5 C 46.3291,136.338 66.3291,136.171 86.5,137C 87.3802,138.356 87.7135,139.856 87.5,141.5C 86.7515,140.469 86.0848,139.302 85.5,138C 65.8362,137.5 46.1695,137.333 26.5,137.5 Z"/></g>
<g><path style="opacity:1" fill="#fdfdfd" d="M 26.5,137.5 C 46.1695,137.333 65.8362,137.5 85.5,138C 86.0848,139.302 86.7515,140.469 87.5,141.5C 97.8252,167.163 116.492,176.663 143.5,170C 157.082,164.585 166.416,155.085 171.5,141.5C 172.29,140.391 172.79,139.058 173,137.5C 183.624,137.546 194.457,137.546 205.5,137.5C 203.032,168.603 190.698,195.103 168.5,217C 162.92,221.957 156.587,225.624 149.5,228C 148.663,229.011 148.33,230.178 148.5,231.5C 102.428,238.206 66.5949,222.206 41,183.5C 32.7618,169.206 27.9285,153.873 26.5,137.5 Z"/></g>
<g><path style="opacity:1" fill="#dddddd" d="M 148.5,231.5 C 148.33,230.178 148.663,229.011 149.5,228C 156.587,225.624 162.92,221.957 168.5,217C 190.698,195.103 203.032,168.603 205.5,137.5C 194.457,137.546 183.624,137.546 173,137.5C 172.79,139.058 172.29,140.391 171.5,141.5C 171.5,139.833 171.5,138.167 171.5,136.5C 192.167,136.5 212.833,136.5 233.5,136.5C 227.27,188.058 198.937,219.725 148.5,231.5 Z"/></g>
<g><path style="opacity:1" fill="#b7b7b7" d="M 11.5,120.5 C 11.2532,132.943 12.2532,145.277 14.5,157.5C 12.9891,155.524 12.1558,153.191 12,150.5C 10.8333,149.333 9.66667,148.167 8.5,147C 10.135,138.251 11.135,129.418 11.5,120.5 Z"/></g>
<g><path style="opacity:1" fill="#a3a3a3" d="M 246.5,154.5 C 245.61,160.166 243.943,165.5 241.5,170.5C 242.39,164.834 244.057,159.5 246.5,154.5 Z"/></g>
<g><path style="opacity:1" fill="#949494" d="M 14.5,158.5 C 16.2766,161.505 17.2766,164.838 17.5,168.5C 15.7234,165.495 14.7234,162.162 14.5,158.5 Z"/></g>
<g><path style="opacity:1" fill="#fefefe" d="M -0.5,199.5 C 6.16667,199.5 12.8333,199.5 19.5,199.5C 19.5,206.167 19.5,212.833 19.5,219.5C 12.8333,219.5 6.16667,219.5 -0.5,219.5C -0.5,212.833 -0.5,206.167 -0.5,199.5 Z"/></g>
<g><path style="opacity:1" fill="#ededed" d="M 19.5,173.5 C 28.597,195.27 42.597,213.27 61.5,227.5C 59.5772,231.029 58.9106,235.029 59.5,239.5C 52.8333,239.5 46.1667,239.5 39.5,239.5C 39.5,232.833 39.5,226.167 39.5,219.5C 32.8333,219.5 26.1667,219.5 19.5,219.5C 19.5,212.833 19.5,206.167 19.5,199.5C 12.8333,199.5 6.16667,199.5 -0.5,199.5C -0.5,192.833 -0.5,186.167 -0.5,179.5C 5.84209,179.666 12.1754,179.5 18.5,179C 19.4061,177.301 19.7394,175.467 19.5,173.5 Z"/></g>
<g><path style="opacity:1" fill="#fefefe" d="M 259.5,199.5 C 259.5,206.167 259.5,212.833 259.5,219.5C 252.833,219.5 246.167,219.5 239.5,219.5C 239.5,212.833 239.5,206.167 239.5,199.5C 246.167,199.5 252.833,199.5 259.5,199.5 Z"/></g>
<g><path style="opacity:1" fill="#eeeeee" d="M -0.5,219.5 C 6.16667,219.5 12.8333,219.5 19.5,219.5C 19.5,226.167 19.5,232.833 19.5,239.5C 12.8333,239.5 6.16667,239.5 -0.5,239.5C -0.5,232.833 -0.5,226.167 -0.5,219.5 Z"/></g>
<g><path style="opacity:1" fill="#fefefe" d="M 19.5,219.5 C 26.1667,219.5 32.8333,219.5 39.5,219.5C 39.5,226.167 39.5,232.833 39.5,239.5C 32.8333,239.5 26.1667,239.5 19.5,239.5C 19.5,232.833 19.5,226.167 19.5,219.5 Z"/></g>
<g><path style="opacity:1" fill="#fefefe" d="M 239.5,219.5 C 239.5,226.167 239.5,232.833 239.5,239.5C 232.833,239.5 226.167,239.5 219.5,239.5C 219.5,232.833 219.5,226.167 219.5,219.5C 226.167,219.5 232.833,219.5 239.5,219.5 Z"/></g>
<g><path style="opacity:1" fill="#eeeeee" d="M 239.5,219.5 C 246.167,219.5 252.833,219.5 259.5,219.5C 259.5,226.167 259.5,232.833 259.5,239.5C 252.833,239.5 246.167,239.5 239.5,239.5C 239.5,232.833 239.5,226.167 239.5,219.5 Z"/></g>
<g><path style="opacity:1" fill="#fefefe" d="M -0.5,239.5 C 6.16667,239.5 12.8333,239.5 19.5,239.5C 19.5,246.167 19.5,252.833 19.5,259.5C 12.8333,259.5 6.16667,259.5 -0.5,259.5C -0.5,252.833 -0.5,246.167 -0.5,239.5 Z"/></g>
<g><path style="opacity:1" fill="#eeeeee" d="M 19.5,239.5 C 26.1667,239.5 32.8333,239.5 39.5,239.5C 39.5,246.167 39.5,252.833 39.5,259.5C 32.8333,259.5 26.1667,259.5 19.5,259.5C 19.5,252.833 19.5,246.167 19.5,239.5 Z"/></g>
<g><path style="opacity:1" fill="#fefefe" d="M 39.5,239.5 C 46.1667,239.5 52.8333,239.5 59.5,239.5C 59.5,246.167 59.5,252.833 59.5,259.5C 52.8333,259.5 46.1667,259.5 39.5,259.5C 39.5,252.833 39.5,246.167 39.5,239.5 Z"/></g>
<g><path style="opacity:1" fill="#ababab" d="M 164.5,243.5 C 159.349,246.536 153.683,247.87 147.5,247.5C 152.982,245.857 158.649,244.523 164.5,243.5 Z"/></g>
<g><path style="opacity:1" fill="#353535" d="M 108.5,246.5 C 118.148,247.245 127.815,247.578 137.5,247.5C 134.016,248.165 130.349,248.499 126.5,248.5C 120.267,248.62 114.267,247.953 108.5,246.5 Z"/></g>
</svg>
