<?xml version="1.0" encoding="UTF-8"?>
<!DOCTYPE svg PUBLIC "-//W3C//DTD SVG 1.1//EN" "http://www.w3.org/Graphics/SVG/1.1/DTD/svg11.dtd">
<svg xmlns="http://www.w3.org/2000/svg" version="1.1" width="360px" height="360px" style="shape-rendering:geometricPrecision; text-rendering:geometricPrecision; image-rendering:optimizeQuality; fill-rule:evenodd; clip-rule:evenodd" xmlns:xlink="http://www.w3.org/1999/xlink">
<g><path style="opacity:1" fill="#f6f6f6" d="M -0.5,-0.5 C 54.1667,-0.5 108.833,-0.5 163.5,-0.5C 84.2666,10.8907 31.7666,54.5573 6,130.5C 3.31366,141.513 1.14699,152.513 -0.5,163.5C -0.5,108.833 -0.5,54.1667 -0.5,-0.5 Z"/></g>
<g><path style="opacity:1" fill="#323232" d="M 163.5,-0.5 C 172.5,-0.5 181.5,-0.5 190.5,-0.5C 257.575,5.94891 307.408,38.6156 340,97.5C 350.575,119.152 357.075,141.819 359.5,165.5C 359.5,175.167 359.5,184.833 359.5,194.5C 349.047,273.125 306.381,325.625 231.5,352C 219.165,355.162 206.832,357.662 194.5,359.5C 184.833,359.5 175.167,359.5 165.5,359.5C 94.0302,350.865 43.1969,313.865 13,248.5C 5.86728,229.65 1.36728,210.317 -0.5,190.5C -0.5,181.5 -0.5,172.5 -0.5,163.5C 1.14699,152.513 3.31366,141.513 6,130.5C 31.7666,54.5573 84.2666,10.8907 163.5,-0.5 Z"/></g>
<g><path style="opacity:1" fill="#f6f6f6" d="M 190.5,-0.5 C 246.833,-0.5 303.167,-0.5 359.5,-0.5C 359.5,54.8333 359.5,110.167 359.5,165.5C 357.075,141.819 350.575,119.152 340,97.5C 307.408,38.6156 257.575,5.94891 190.5,-0.5 Z"/></g>
<g><path style="opacity:1" fill="#ed1b24" d="M 163.5,19.5 C 226.166,16.1721 275.833,39.6721 312.5,90C 287.996,104.419 263.33,118.586 238.5,132.5C 214.249,105.603 184.916,98.1033 150.5,110C 117.38,126.058 102.213,152.558 105,189.5C 106.045,195.669 107.378,201.669 109,207.5C 84.3119,221.923 59.4785,235.923 34.5,249.5C 7.9548,185.847 16.1215,127.18 59,73.5C 87.3326,42.917 122.166,24.917 163.5,19.5 Z"/></g>
<g><path style="opacity:1" fill="#f5f5f5" d="M 170.5,125.5 C 201.052,123.677 221.552,137.01 232,165.5C 237.347,198.316 224.514,220.483 193.5,232C 160.696,237.353 138.529,224.519 127,193.5C 122.12,158.23 136.62,135.563 170.5,125.5 Z"/></g>
<g><path style="opacity:1" fill="#f6f6f6" d="M -0.5,190.5 C 1.36728,210.317 5.86728,229.65 13,248.5C 43.1969,313.865 94.0302,350.865 165.5,359.5C 110.167,359.5 54.8333,359.5 -0.5,359.5C -0.5,303.167 -0.5,246.833 -0.5,190.5 Z"/></g>
<g><path style="opacity:1" fill="#f5f5f5" d="M 322.5,109.5 C 327.229,116.481 330.729,124.148 333,132.5C 349.888,197.801 334.055,253.634 285.5,300C 235.289,340.654 179.622,349.987 118.5,328C 88.7795,315.276 64.7795,295.61 46.5,269C 71.2453,255.212 95.7453,241.046 120,226.5C 147.092,255.713 178.925,262.213 215.5,246C 240.869,230.936 253.869,208.603 254.5,179C 254.244,169.647 253.077,160.48 251,151.5C 274.814,137.347 298.648,123.347 322.5,109.5 Z"/></g>
<g><path style="opacity:1" fill="#f6f6f6" d="M 359.5,194.5 C 359.5,249.5 359.5,304.5 359.5,359.5C 304.5,359.5 249.5,359.5 194.5,359.5C 206.832,357.662 219.165,355.162 231.5,352C 306.381,325.625 349.047,273.125 359.5,194.5 Z"/></g>
</svg>
